# xmcd
#
# Track frame offsets:
#	167
#	24649
#	66024
#	93792
#	111642
#	138519
#	160460
#	191869
#	216018
#	233831
#	253440
#	281611
#	294170
#	306953
#	325169
#
# Disc length: 4573 seconds
# Revision: 3
# Processed by: cddbd v1.5.2PL0 Copyright (c) Steve Scherf et al.
# Submitted via: dBpowerAMP V12.0
#
DISCID=e711db0f
DTITLE=Various Artist - Essentiel Blues
DYEAR=2004
DGENRE=Blues
TTITLE0=B. B. King - The Trill Is Gone
TTITLE1=Steve Ray Vaughan and Double Trouble - Tin Pan Alley
TTITLE2=Gary Moore - Still Got The Blues
TTITLE3=Robert Cray - I Wonder
TTITLE4=Luther Allison - Love Me Papa
TTITLE5=Lucky Peterson - Is It Because I'm Black
TTITLE6=Albert Collins - Light Are On But Nobody's Home
TTITLE7=Lonnie Mack - Stop
TTITLE8=Jimmy Rogers - I Can't Sleep For Worrying
TTITLE9=Jeff Beck - JB'S Blues
TTITLE10=John Mayall and The Bluesbrakers - Blues For The Lost Mood
TTITLE11=John Lee Hooker - I'm In The Mood
TTITLE12=J. J. Cale - Cocaine
TTITLE13=J. J. Cale - Guitar Man
TTITLE14=Ben Harper - Breaking Down
EXTD=
EXTT0=
EXTT1=
EXTT2=
EXTT3=
EXTT4=
EXTT5=
EXTT6=
EXTT7=
EXTT8=
EXTT9=
EXTT10=
EXTT11=
EXTT12=
EXTT13=
EXTT14=
PLAYORDER=
